<svg width="16" height="16" viewBox="0 0 16 16" fill="none" xmlns="http://www.w3.org/2000/svg">
<g clip-path="url(#clip0_10602_33049)">
<path d="M3.11676 2.95858C3.3187 2.81914 3.58664 2.81335 3.79449 2.94393L3.89312 3.02108L8.85602 7.77498C8.97778 7.89181 9.04713 8.05428 9.04644 8.22323C9.0455 8.39208 8.97512 8.55378 8.85211 8.66951L3.88922 13.3326C3.64119 13.5657 3.25049 13.5543 3.01715 13.3062C2.78437 13.0582 2.79576 12.6674 3.04351 12.4342L7.53375 8.21444L3.03961 3.9117C2.82465 3.70538 2.79216 3.38072 2.94488 3.13826L3.02105 3.03963L3.11676 2.95858Z" fill="#777777"/>
<path d="M7.73102 2.95858C7.93291 2.81914 8.20091 2.81346 8.40875 2.94393L8.50738 3.02108L13.4703 7.77498C13.592 7.89181 13.6614 8.05428 13.6607 8.22323C13.6598 8.39213 13.5894 8.55378 13.4664 8.66951L8.50348 13.3326C8.25545 13.5657 7.86474 13.5543 7.63141 13.3062C7.39876 13.0582 7.41008 12.6673 7.65777 12.4342L12.148 8.21444L7.65387 3.9117C7.43902 3.70537 7.40645 3.38067 7.55914 3.13826L7.63531 3.03963L7.73102 2.95858Z" fill="#777777"/>
</g>
<defs>
<clipPath id="clip0_10602_33049">
<rect width="16" height="16" fill="white"/>
</clipPath>
</defs>
</svg>
