<svg width="16" height="16" viewBox="0 0 16 16" fill="none" xmlns="http://www.w3.org/2000/svg">
<g clip-path="url(#clip0_10602_33090)">
<path d="M8.10157 2.94394C8.30939 2.81329 8.57732 2.81922 8.7793 2.95859L8.87501 3.03964L8.95118 3.13827C9.10393 3.38077 9.07152 3.70539 8.85645 3.91171L4.36231 8.21444L8.85254 12.4342C9.10034 12.6674 9.1118 13.0582 8.87891 13.3062C8.64557 13.5543 8.25487 13.5657 8.00684 13.3326L3.04395 8.66952C2.92102 8.5538 2.85056 8.39203 2.84961 8.22323C2.84893 8.05429 2.91828 7.89182 3.04004 7.77499L8.00293 3.02109L8.10157 2.94394Z" fill="#777777"/>
<path d="M12.7158 2.94394C12.9236 2.81321 13.1915 2.81929 13.3936 2.95859L13.4893 3.03964L13.5654 3.13827C13.7182 3.38082 13.6859 3.7054 13.4707 3.91171L8.97657 8.21444L13.4668 12.4342C13.7146 12.6674 13.7262 13.0582 13.4932 13.3062C13.2598 13.5543 12.8691 13.5657 12.6211 13.3326L7.65821 8.66952C7.53536 8.55381 7.46481 8.39197 7.46387 8.22323C7.46319 8.05429 7.53254 7.89182 7.6543 7.77499L12.6172 3.02109L12.7158 2.94394Z" fill="#777777"/>
</g>
<defs>
<clipPath id="clip0_10602_33090">
<rect width="16" height="16" fill="white"/>
</clipPath>
</defs>
</svg>
